<svg id="us-map" viewBox="0 0 800 500" xmlns="http://www.w3.org/2000/svg">
  <g id="states">
    <path id="st-alabama" class="state" data-name="Alabama" d="M504.329,297.704L524.129,295.947L527.448,307.758L532.277,325.113L534.059,328.858L535.591,330.925L535.24,332.359L536.68,333.042L534.902,335.029L535.169,336.778L534.415,339.262L536.057,343.325L535.64,347.082L537.377,350.743L531.541,351.483L506.571,353.974L506.342,355.843L509.258,358.276L509.007,360.608L510.028,361.669L508.442,363.889L506.841,364.493L503.623,362.465L503.002,359.057L502.055,358.752L501.16,361.442L500.975,363.995L497.833,363.559L495.22,342.294L495.749,315.468L496.103,299.97L494.806,298.607Z" />
    <path id="st-alaska" class="state active" data-name="Alaska" d="M220.897,416.982L220.718,416.194L221.439,416.45L221.63,417.263L220.914,417.402ZM219.799,415.777L220.481,416.163L220.489,417.068L220.176,416.865ZM215.249,412.08L215.833,411.775L216.158,411.864L216.303,412.579L215.804,412.914L215.168,412.642ZM213.79,413.001L214.954,412.797L215.527,413.597L216.975,414.219L217.563,414.701L217.763,415.199L218.069,415.209L218.335,415.854L219.018,416.357L219.275,416.92L219.517,416.639L219.804,417.05L220.481,418.827L220.43,419.297L219.657,419.476L219.144,418.632L218.907,418.797L218.139,418.292L218.055,418.573L217.528,418.494L217.826,419.156L218.191,418.838L218.553,419L218.734,419.983L218.186,420.052L217.019,419.111L216.602,418.57L216.439,417.919L215.846,418.167L215.691,417.682L216.138,417.482L216.46,416.899L216.011,416.2L215.415,416.224L214.936,415.027L214.541,414.478L214.308,415.03L213.948,414.385L214.226,413.931L213.663,413.238ZM214.59,416.823L215.193,416.97L215.416,416.476L215.82,416.544L215.68,417.348L215.05,417.324ZM212.138,410.541L211.634,410.192L211.954,409.755L213.462,409.756L214.063,409.533L214.776,410.26L215.805,410.71L215.899,411.272L215.572,411.691L214.956,411.753L214.657,412.216L214.029,412.193L213.475,412.594L213.002,411.535L212.832,410.801L212.364,410.92ZM212.258,412.806L211.795,412.556L211.181,411.902L210.96,411.325L211.181,410.949L211.588,411.132L211.508,410.624L212.775,411.156L213.131,411.944L212.812,412.157L212.875,413.148L213.209,413.325L213.232,414.497L212.762,414.39L212.911,415.073L212.552,414.819L211.995,413.56ZM211.195,414.139L211.271,414.704L210.823,414.502L209.246,412.702L208.463,412.259L208.532,411.708L207.953,410.591L207.014,409.826L207.426,408.704L207.841,409.004L208.524,409.14L209.077,409.033L209.312,409.775L210.57,412.059ZM208.276,405.098L209.219,405.206L209.688,405.007L209.772,405.374L210.873,406.438L210.32,406.385L210.333,406.859L211.071,407.361L211.603,408.488L211.162,408.962L211.109,409.428L210.494,410.541L210.222,410.595L209.841,409.729L209.858,409.135L209.536,408.364L208.942,407.477L208.843,406.946L208.277,405.742L207.793,405.298L207.425,404.399ZM206.636,410.128L206.996,410.026L207.613,410.772L207.614,411.413L207.077,411.704L206.9,410.75ZM204.434,406.281L205.186,406.101L205.557,405.552L206.421,405.92L206.218,406.648L206.42,406.842L206.574,406.044L207.494,406.029L208.12,406.405L208.121,407.412L208.362,407.425L209.016,408.575L208.408,408.95L206.894,408.298L207.229,409.319L206.959,409.842L206.451,409.789L205.994,409.22L205.349,408.925L204.703,408.128L204.084,407.85L203.909,407.091L204.179,406.74L204.112,406.063ZM176.202,401.664L175.307,402.997L175.274,403.486L174.478,403.886L174.581,403.121L175.395,402.26L175.863,401.348ZM174.862,399.936L174.83,400.965L174.587,402.041L174.079,401.737L174.362,400.497ZM169.927,353.088L170.121,353.281L171.015,353.403L171.461,353.224L172.094,353.154L172.804,353.257L173.196,353.103L173.64,353.445L174.416,353.796L175.4,353.766L175.63,353.467L176.25,353.216L176.474,352.837L177.161,352.676L177.189,352.911L177.58,352.715L178.492,352.936L179.174,353.432L179.768,353.62L179.935,353.857L180.443,353.817L180.998,354.168L181.146,354.435L181.388,354.146L181.776,354.258L190.641,398.967L191.822,399.139L191.878,398.689L193.158,399.051L193.678,398.141L195.089,397.743L195.123,399.086L195.588,399.448L196.504,399.677L196.847,400.314L199.903,402.223L200.691,403.714L201.017,403.159L201.881,402.129L202.469,401.944L202.592,401.299L202.334,400.45L202.753,400.337L202.652,399.557L203.342,399.171L204.259,398.214L205.653,399.012L205.746,399.713L206.204,400.306L206.864,400.279L207.939,401.048L207.973,401.347L208.493,401.778L209.674,402.087L212.153,404.256L212.627,404.892L213.373,405.439L214.656,406.766L215.874,407.857L215.775,408.513L216.641,408.445L216.727,409.323L217.489,409.43L217.897,410.338L218.532,410.06L220.124,410.576L220.966,410.471L221.536,410.776L221.972,410.758L222.251,411.169L223.122,410.987L223.581,411.444L223.589,412.615L223.966,413.446L224.864,414.71L224.711,415.169L224.558,416.684L223.975,417.954L223.539,417.572L223.246,417.85L222.654,416.982L222.581,416.553L222.121,416.178L222.541,415.457L222.306,415.343L221.93,416.19L221.456,415.905L221.163,416.264L219.718,415.635L219.702,414.393L219.149,415.01L219.312,415.577L218.621,415.333L218.325,414.839L218.496,414.129L218.183,413.585L217.836,414.241L216.975,413.372L216.732,413.679L216.246,412.88L216.552,412.156L217.03,411.996L216.658,411.357L216.608,410.383L216.228,410.54L215.167,410.046L214.298,409.315L212.759,409.079L212.191,407.204L211.696,407.108L211.548,406.31L211.05,406.242L210.095,405.415L209.753,404.93L208.609,405.083L207.002,404.047L205.552,400.945L205.531,401.761L205.83,402.402L206.683,403.553L206.623,403.794L207.253,404.757L207.39,405.472L206.873,405.455L206.272,404.79L205.738,404.803L205.097,405.207L204.8,404.091L204.114,403.278L203.806,403.669L202.009,403.095L201.951,403.416L202.873,403.504L203.738,404.105L203.999,404.061L204.251,404.661L204.787,405.293L204.05,405.94L203.479,405.816L203.64,406.468L202.858,406.149L202.545,405.842L202.139,405.948L200.779,405.299L199.75,404.67L199.547,404.195L198.913,403.576L197.535,403.354L196.715,402.966L195.365,402.611L194.437,402.183L194.36,401.512L194.63,401.673L194.801,401.195L194.33,400.309L194.54,399.712L194.332,399.511L193.963,400.637L192.869,401.556L191.345,401.621L189.989,401.256L189.846,400.791L189.289,401.006L188.609,400.777L187.176,400.705L186.372,400.816L184.617,401.375L184,401.661L183.08,401.093L182.024,400.921L181.649,400.539L181.432,399.837L180.748,399.985L180.598,400.655L179.26,399.961L179.018,399.612L177.836,400.457L177.314,401.355L176.965,400.61L177.179,400.153L177.557,400.219L178.69,399.517L178.482,399.109L177.949,399.389L177.664,398.854L177.137,398.833L176.464,397.475L176.309,397.843L175.608,398.106L175.357,397.943L175.158,398.422L174.239,398.35L174.248,398.861L173.651,399.051L173.349,398.889L173.475,397.961L173.22,398.011L172.89,399.01L173.489,399.282L173.603,399.973L174.023,400.69L173.886,401.512L173.402,401.285L173.305,401.698L173.768,401.819L174.115,402.867L173.483,403.139L173.106,402.956L172.559,403.297L172.247,403.08L171.491,403.165L171.487,402.761L171.148,403.055L170.985,403.579L170.633,403.145L170.277,403.816L170.471,404.099L169.933,404.511L169.426,404.597L169.256,405.119L168.729,405.607L168.342,405.467L167.952,406.025L167.612,406.016L166.958,407.149L166.197,407.263L165.938,406.923L165.497,407.531L164.526,407.107L164.718,406.268L165.331,405.951L165.739,405.99L165.848,405.663L166.55,404.989L166.554,404.451L165.629,405.215L164.82,404.813L164.716,404.521L165.076,403.272L165.72,402.361L165.797,401.632L165.99,401.49L166.037,400.708L165.662,399.863L166.469,399.507L167.962,398.196L168.363,398.658L168.849,398.764L169.528,398.211L168.702,397.589L168.365,397.097L167.753,397.185L167.305,396.966L167.188,397.187L166.473,397.57L166.168,398.256L165.439,398.447L164.703,399.252L164.641,399.765L164.063,400.052L163.949,400.619L163.538,400.98L163.366,401.978L162.559,402.641L162.968,403.143L162.65,403.902L161.877,404.05L161.824,405.018L161.101,405.376L160.868,404.975L160.51,405.73L160.077,405.759L160.161,406.296L159.197,406.619L159.003,408.096L160.113,408.176L160.995,408.574L161.247,409.055L160.895,409.837L160.302,410.324L159.746,410.353L159.691,410.783L159.329,410.944L159.496,411.481L159.117,412.286L158.296,413.034L157.831,413.03L157.376,413.294L156.938,413.234L156.594,413.524L156.686,413.928L156.044,414.131L155.903,414.719L155.47,414.334L154.957,415.475L154.143,415.372L154.181,415.99L153.699,415.814L153.345,416.07L153.316,416.902L152.718,418.168L151.824,418.293L151.068,418.849L150.936,419.165L150.491,418.686L149.636,419.876L149.435,419.516L148.989,419.597L148.845,420.287L148.372,420.527L147.834,420.385L147.36,421.052L148.1,421.316L147.181,422.813L144.783,423.145L144.01,424.452L143.87,424.144L144.033,423.298L143.58,423.124L142.968,423.392L142.847,423.731L141.878,424.205L141.424,424.806L141.348,424.341L141.054,424.85L140.547,424.448L139.448,425.166L138.695,425.055L138.873,424.429L138.612,423.779L138.253,424.25L138.221,424.785L137.013,426.286L136.713,425.845L136.531,426.442L135.844,426.248L135.861,425.278L135.465,425.011L135.269,425.336L135.592,425.81L135.323,426.45L134.714,426.72L134.388,425.92L133.879,425.796L133.748,426.075L134.206,426.571L133.164,427.128L133.78,427.404L133.752,427.724L133.249,427.41L132.438,427.942L131.046,427.708L130.29,428.024L130.179,428.331L129.32,428.573L128.757,428.346L128.705,427.416L129.334,427.221L129.951,426.209L130.533,426.275L131.888,425.751L132.894,425.872L133.175,426.616L133.535,426.153L133.557,425.562L134.169,425.377L134.79,425.461L135.788,424.297L136.849,423.271L138.166,422.405L139.616,422.112L140.173,422.389L140.769,422.155L140.874,422.597L140.511,423.044L140.816,423.453L140.981,422.877L141.688,422.894L141.846,423.287L142.267,423.462L142.325,423.01L141.648,422.54L141.615,422.268L142.212,421.06L142.914,420.4L143.829,419.783L145.229,419.282L146.276,418.475L146.719,418.83L147.108,418.724L146.987,418.15L147.141,417.623L147.955,416.549L149.007,415.89L149.864,414.972L149.851,414.434L150.69,410.661L151.712,409.69L151.639,408.879L149.256,409.907L148.53,409.727L148.382,409.233L147.983,408.991L147.882,408.445L147.494,408.66L147.199,409.473L147.526,410.547L147.006,410.967L146.586,410.774L145.885,409.048L145.39,408.172L145.102,408.147L144.856,408.746L144.599,408.831L144.274,408.289L143.828,408.167L143.702,407.319L142.268,408.121L140.988,408.659L140.85,409.022L139.833,409.473L139.424,408.911L139.921,408.375L139.934,406.97L139.797,405.466L140.489,404.925L140.125,403.638L139.77,402.891L139.551,401.836L139.091,401.344L138.846,402.207L138.2,402.312L137.131,402.736L135.902,402.805L135.26,402.655L134.748,402.278L134.801,401.498L134.365,401.185L133.789,400.004L133.198,399.689L132.669,398.401L133.249,397.955L133.516,396.991L133.109,397.141L133.162,396.523L133.425,396.05L133.032,395.519L132.9,395.987L132.36,395.702L132.429,394.869L132.007,394.684L131.868,394.086L132.005,393.401L131.51,393.638L131.557,392.964L132.121,392.903L131.822,392.084L132.6,392.171L132.76,391.272L133.053,390.697L134.79,389.008L135.178,388.474L135.367,388.613L135.381,387.772L136.138,386.455L136.679,385.971L137.559,385.863L138.178,386.2L138.975,387.183L139.589,387.16L140.524,386.446L141.527,385.303L141.97,385.223L142.037,385.555L143.057,385.675L143.987,385.509L144.927,384.286L144.96,383.966L144.69,382.698L144.719,381.974L144.192,381.136L144.036,380.445L144.634,380.698L145.275,380.2L145.364,379.671L144.721,378.607L144.082,379.318L143.576,379.125L143.038,379.493L142.469,379.532L142.296,379.808L141.605,380.152L141.317,380.844L140.957,381.094L140.922,380.224L140.56,379.985L140.194,380.611L140.078,380.27L139.429,379.69L137.96,379.496L136.829,379.857L136.418,379.87L135.62,379.408L134.079,378.751L133.716,378.383L133.615,377.873L133.885,377.243L133.422,376.582L133.65,375.999L134.064,375.752L134.099,374.969L133.539,374.861L133.12,374.56L132.256,374.221L131.869,373.731L131.236,373.187L131.278,372.677L132.526,372.257L134.141,371.438L135.237,370.968L135.723,371.439L136.276,371.62L136.498,371.117L136.171,370.977L136.22,370.525L137.694,370.025L139.294,369.72L140.115,369.793L140.531,370.044L140.18,370.801L140.182,371.368L139.951,371.738L140.147,372.415L140.701,372.388L141.364,372.59L142.169,372.564L142.364,372.832L142.876,372.952L143.36,372.77L143.922,373.107L144.617,372.113L145.032,372.106L145.288,372.349L145.493,371.754L144.745,371.375L143.969,371.527L144.138,370.741L143.659,369.823L143.06,369.478L142.97,368.687L143.485,368.565L144.019,369.41L143.829,370.005L144.079,370.519L144.684,371.154L144.91,370.589L144.237,369.732L144.725,368.394L144.492,368.125L143.717,368.326L142.966,368.149L142.883,367.897L142.466,368.083L140.961,367.279L141.019,366.668L140.75,365.256L140.451,364.699L139.92,364.184L138.907,362.832L138.436,362.293L137.909,362.092L137.242,361.161L136.541,360.569L136.532,360.405L137.163,360.282L137.563,359.602L137.854,358.148L139.391,358.531L141.332,358.501L141.863,358.315L142.747,357.697L143.638,356.676L143.943,355.573L144.382,354.648L145.119,353.921L145.463,353.355L146.35,352.484L146.438,352.759L147.069,352.911L148.055,352.515L148.691,352.051L150.22,350.558L150.746,350.523L150.781,350.762L151.325,350.621L151.842,350.711L152.878,350.569L153.919,349.919L154.97,348.503L155.378,348.206L155.439,348.47L156.928,349.117L157.042,349.538L156.503,350.074L156.262,350.093L156.249,350.826L157.027,350.611L157.081,350.219L157.436,349.86L157.548,350.071L157.82,349.239L158.566,350.006L158.436,350.581L158.91,350.742L159.188,351.083L159.601,350.534L160.327,350.504L160.737,350.317L161.796,350.483L162.339,350.68L162.106,351.813L163.113,352.073L163.195,352.359L164.191,352.82L164.19,352.584L164.878,352.237L165.553,352.228L165.576,352.49L165.97,352.494L166.358,352.102L167.027,352.006L167.511,352.13L168.187,352.473L168.482,352.371L168.957,352.885L169.186,352.654L169.602,352.775ZM162.223,413.177L162.213,413.392L161.318,413.082L161.935,411.812L162.508,411.696L162.877,410.534L163.331,411.545L163.686,411.187L164.401,411.732L164.423,412.51L163.398,412.644L162.955,413.003ZM159.597,415.588L160.339,414.942L159.668,414.81L159.653,414.246L160.206,413.869L160.605,414.135L160.665,414.698L160.89,414.321L160.898,413.489L161.383,413.86L161.462,413.322L161.891,413.639L162.401,413.631L162.792,413.329L163.454,413.825L163.487,415.247L164.313,415.118L163.793,416.072L162.78,415.718L163.166,416.328L162.888,416.843L162.365,416.611L162.366,417.577L161.572,417.857L161.315,418.262L160.818,417.891L160.3,418.913L159.891,419.022L159.453,419.478L159.293,418.378L158.679,418.967L158.651,418.618L158.1,418.266L158.064,417.273L157.534,416.865L157.848,415.715L158.897,414.997L159.539,415.051ZM158.056,420.17L157.486,421.156L157.31,420.993ZM155.018,423.444L155.451,423.508L155.278,424.523L154.559,424.371L154.448,424.019ZM143.122,425.907L142.862,426.932L141.927,427.706L142.461,426.439L142.738,426.598ZM141.414,425.37L141.929,425.42L141.863,425.952L141.289,426.488L140.872,426.043L140.545,426.386L140.472,425.464L140.653,425.186ZM136.394,426.668L136.402,427.101L136.048,427.326L135.861,426.844ZM141.311,384.546L140.932,384.984L140.881,384.545ZM134.553,428.858L135.13,429.123L135.016,429.513L134.54,429.423ZM126.688,428.591L126.792,429.179L126.317,429.34L126.266,428.733ZM126.027,429.18L125.066,429.549L124.948,429.147L125.405,428.741ZM129.892,398.994L130.471,398.91L130.524,399.275L131.019,399.284L131.43,399.685L131.277,401.077L130.947,401.482L130.281,401.634L130.062,402.086L129.25,401.388L128.824,401.334L128.053,400.472L127.739,400.409L127.297,399.909L127.244,399.24L127.536,399.135L128.387,399.47L128.9,399.05L129.351,399.082L129.611,398.776ZM124.108,429.534L124.504,429.989L123.387,430.703L123.373,430.863L124.695,430.432L124.642,430.802L124.076,431.159L123.241,431.3L123.077,431.731L122.139,432.039L121.397,431.919L120.821,432.266L119.829,432.47L119.43,431.95L120.489,431.653L120.77,431.792L121.575,431.519L121.497,431.013L122.002,430.596L122.563,430.952L122.687,430.649L122.054,430.416L121.765,430.004L122.19,429.489L123.355,429.363L123.461,430.064ZM116.387,432.187L117.687,431.52L117.836,431.143L118.354,430.792L119.053,430.724L119.346,431.032L119.338,431.686L117.97,432.102L117.092,432.947L116.48,433.166ZM113.344,432.79L113.357,433.287L112.609,433.133L112.607,432.803ZM117.286,411.988L116.824,412.343L116.865,411.883ZM110.464,433.063L110.541,433.55L109.924,433.722L109.965,433.237ZM121.623,380.208L123.097,381.352L124.216,381.003L124.639,381.165L124.946,381.6L124.909,382.199L125.679,382.718L125.878,383.068L126.955,383.458L127.574,383.819L127.051,384.443L126.546,384.162L125.941,384.159L125.573,384.402L125.133,385.042L124.879,384.291L124.506,383.73L124.075,383.568L123.989,383.02L123.081,382.124L122.591,381.968L121.682,382.309L121.181,381.867L121.095,381.232ZM104.996,433.13L104.89,433.681L104.307,433.625L104.55,433.196ZM101.224,433.241L101.542,433.56L102.625,433.856L102.627,434.024L101.275,433.869ZM99.416,432.01L99.545,431.548L100.007,431.498L100.444,432.137L100.09,432.501L99.752,432.368L99.711,432.885L99.143,432.763L97.816,432.898L97.204,432.531L97.508,432.238L98.199,432.517ZM92.611,431.929L93.155,432.035L92.954,432.613L92.32,432.307L91.262,432.693L91.271,431.679L91.625,431.777L91.913,431.117L92.344,431.242L92.166,431.744ZM90.81,430.804L91.04,431.143L90.54,431.839L90.02,431.905L90.178,431.424ZM88.012,429.906L88.484,430.113L88.713,430.825L88.002,431.297ZM66.359,414.261L66.692,414.804L66.481,415.266L65.298,414.961L64.999,413.885L65.179,413.558Z" />
    <path id="st-arizona" class="state active" data-name="Arizona" d="M262.886,264.118L251.914,343.094L228.097,339.544L215.247,332.115L187.557,315.692L189.244,312.814L191.607,312.734L192.472,311.65L192.352,308.959L190.804,308.574L191.079,303.292L193.768,301.784L194.481,299.805L194.689,296.47L196.523,294.318L198.488,293.76L200.195,292.206L198.364,289.809L197.544,285.877L196.16,283.245L196.505,281.506L197.55,279.747L197.817,277.126L197.434,274.297L198.386,266.067L202.513,266.332L203.51,268.257L204.608,268.391L206.203,266.262L208.345,255.117L246.977,261.719Z" />
    <path id="st-arkansas" class="state" data-name="Arkansas" d="M423.442,280.875L471.45,279.089L472.591,281.726L470.988,283.526L469.373,286.252L476.593,285.8L476.398,288.442L474.791,289.32L474.561,291.5L472.612,293.941L473.007,297.318L472.045,299.85L470.952,300.302L471.709,301.493L469.972,302.678L469.303,305.112L468.155,305.796L468.5,308.556L466.481,309.442L466.594,310.362L464.339,312.8L465.112,314.302L463.155,316.643L461.545,321.044L463.664,322.786L462.71,323.992L463.495,326.88L462.703,328.848L434.294,329.697L429.262,329.812L429.108,322.346L427.451,321.763L425.186,322.497L423.963,321.208L424.187,296.455L421.859,280.899Z" />
    <path id="st-california" class="state active" data-name="California" d="M129.746,163.534L138.221,165.91L151.48,169.826L161.793,172.547L155.762,196.151L151.251,213.401L161.67,229.071L171.755,244.236L179.883,256.431L185.83,265.373L196.505,281.506L196.16,283.245L197.544,285.877L198.364,289.809L200.195,292.206L198.488,293.76L196.523,294.318L194.689,296.47L194.481,299.805L193.768,301.784L191.079,303.292L190.804,308.574L192.352,308.959L192.472,311.65L191.607,312.734L189.244,312.814L173.812,310.957L161.221,309.446L160.254,307.335L160.84,304.47L160.739,300.895L159.679,298.125L156.923,294.009L153.155,289.878L152.099,290.497L150.505,289.561L151.074,288.272L149.783,285.029L147.009,284.988L142.87,281.823L142.611,280.01L140.02,277.213L136.483,276.391L133.807,274.745L130.018,274.153L128.557,271.853L129.986,268.163L129.483,267.392L130.616,264.819L128.278,262.041L128.898,259.252L127.865,258.814L126.723,255.948L125.617,255.088L125.489,253.453L122.887,246.733L121.4,244.556L122.216,240.055L122.932,240.656L124.418,238.265L123.564,235.462L121.617,235.235L119.783,232.389L119.399,230.433L120.039,228.849L119.44,226.349L120.461,222.785L122.418,223.344L123.031,218.139L122.024,218.413L121.15,220.814L118.934,220.739L117.006,218.17L117.535,214.866L116.676,211.879L115.031,209.704L114.423,207.59L112.409,203.201L113.227,202.318L113.178,197.386L114.55,195.058L114.793,191.02L113.3,186.535L111.386,183.689L111.638,181.103L115.977,175.979L117.077,174.138L117.057,172.439L119.22,168.666L119.529,164.733L118.716,163.517L120.05,160.703Z" />
    <path id="st-colorado" class="state active" data-name="Colorado" d="M282.237,209.756L304.975,212.434L322.42,213.994L343.253,215.543L342.354,229.631L339.777,271.942L329.221,271.139L314.504,270.026L286.7,267.207L280.642,266.416L262.886,264.118L265.136,247.824L265.171,246.27L266.868,234.422L270.538,208.288Z" />
    <path id="st-connecticut" class="state" data-name="Connecticut" d="M640.466,174.607L653.043,171.661L653.101,171.884L655.197,179.937L654.921,181.363L653.98,181.367L649.831,183.544L644.502,184.563L642.692,186.994L640.396,188.19L637.884,190.461L636.784,189.059L638.923,186.96L637.931,186.009L636.101,175.513Z" />
    <path id="st-delaware" class="state" data-name="Delaware" d="M623.555,210.851L622.952,212.722L622.067,213.863L622.772,216.001L624.762,217.699L625.91,221.003L628.937,224.05L630.008,223.969L631.533,228.613L624.666,229.97L619.932,212.825L621.369,210.934Z" />
    <path id="st-district-of-columbia" class="state" data-name="District of Columbia" d="M608.962,225.608L610.566,226.701L609.47,228.42L608.264,226.616Z" />
    <path id="st-florida" class="state active" data-name="Florida" d="M531.541,351.483L537.377,350.743L539.474,354.59L555.864,353.469L571.23,352.413L572.249,355.285L573.671,354.998L573.776,352.116L572.94,349.605L573.884,348.38L576.776,349.109L580.098,349.144L581.739,355.016L584.29,361.515L589.171,369.801L596.063,378.353L595.376,379.162L596.357,383.482L599.438,387.993L604.651,397.225L605.915,400.171L606.381,403.326L606.923,414.845L605.794,415.265L605.142,418.98L605.741,420.03L603.747,422.966L602.682,422.528L600.503,423.955L596.587,425.194L595.187,423.961L595.41,421.783L591.64,416.168L589.269,415.384L587.472,416.501L585.453,413.358L584.625,410.646L581.572,407.956L580.659,406.019L580.635,403.028L579.131,402.712L579.725,404.391L578.498,405.031L573.491,398.15L571.67,396.487L574.591,390.457L572.214,391.105L570.844,393.067L568.85,390.578L569.935,382.728L569.448,376.399L567.775,375.092L567.026,373.114L564.646,372.982L561.481,370.019L559.12,368.948L558.715,366.918L557.1,366.36L555.552,364.248L550.568,361.802L546.653,362.986L547.112,365.089L545.751,364.87L541.059,368.054L535.787,369.278L535.747,367.742L534.291,366.057L527.601,362.628L522.96,361.342L518.918,361.287L515.605,361.917L508.442,363.889L510.028,361.669L509.007,360.608L509.258,358.276L506.342,355.843L506.571,353.974Z" />
    <path id="st-georgia" class="state" data-name="Georgia" d="M552.213,292.257L550.213,295.563L550.222,297.04L554.402,299.506L555.547,299.115L557.71,301.926L558.308,303.477L560.524,306.12L563.396,307.498L565.273,309.871L568.689,311.78L568.802,313.397L571.201,315.684L574.61,317.345L575.718,319.51L576.303,322.455L578.039,323.197L580.462,326.631L580.897,328.974L583.765,329.763L581.64,334.924L581.51,337.432L580.623,339.747L580.837,341.966L579.702,343.152L580.098,349.144L576.776,349.109L573.884,348.38L572.94,349.605L573.776,352.116L573.671,354.998L572.249,355.285L571.23,352.413L555.864,353.469L539.474,354.59L537.377,350.743L535.64,347.082L536.057,343.325L534.415,339.262L535.169,336.778L534.902,335.029L536.68,333.042L535.24,332.359L535.591,330.925L534.059,328.858L532.277,325.113L527.448,307.758L524.129,295.947L538.62,294.179L546.518,293.252Z" />
    <path id="st-hawaii" class="state" data-name="Hawaii" d="M293.584,433.038L290.318,431.833L289.806,430.614L290.227,427.483L287.893,422.154L289.691,420.394L290.979,417.95L290.034,416.355L290.315,414.679L294.001,416.64L298.12,418.062L300.66,420.178L300.674,422.007L304.454,424.95L302.161,427.41L298.046,428.585L295.162,430.434ZM280.932,404.133L282.444,406.031L284.382,405.19L288.63,407.381L287.99,409.361L283.676,410.363L282.812,409.984L282.591,407.551L280.361,407.023L279.497,405.655ZM275.76,401.63L274.467,403.074L271.452,403.071L272.387,401.477ZM263.081,394.851L264.503,398.119L263.779,400.015L260.98,400.307L259.134,396.427L260.783,396.359ZM243.312,387.366L244.811,387.531L245.513,388.977L245.065,391.02L243.551,392.294L239.417,390.66L239.942,388.392Z" />
    <path id="st-idaho" class="state" data-name="Idaho" d="M221.905,86.347L218.941,100.187L221.123,104.607L220.391,108.334L221.833,110.345L223.6,111.332L223.605,112.343L226.348,116.708L226.459,118.284L228.65,120.199L228.576,121.116L231.33,121.58L228.985,126.405L228.091,129.574L228.671,131.867L226.648,133.026L227.048,134.585L226.28,135.992L228.051,137.821L230.782,136.403L232.016,135.083L233.491,136.765L233.015,137.842L233.466,140.652L234.529,143.733L235.513,144.929L234.971,147.554L235.88,148.891L237.877,149.413L238.352,154.096L239.342,155.053L240.59,153.952L243.631,154.568L246.092,153.751L247.314,154.661L249.722,154.447L250.077,155.285L252.151,155.087L254.873,152.583L256.033,155.256L257.574,156.979L252.097,191.285L240.728,189.479L221.685,186.015L191.595,179.663L197.232,154.602L199.523,150.396L198.975,149.094L197.161,148.449L196.894,146.423L199.954,142.007L201.059,141.783L202.514,139.989L202.639,138.683L204.11,137.285L205.217,135.022L208.094,131.426L207.72,129.388L205.693,127.923L204.909,125.322L205.39,122.926L204.684,120.265L205.09,119.184L209.116,101.059L212.973,84.386Z" />
    <path id="st-illinois" class="state" data-name="Illinois" d="M461.265,194.825L480.173,193.804L490.225,192.988L490.121,195.701L491.964,198.71L494.052,203.706L496.955,236.824L496.012,239.466L497.626,242.345L498.023,244.791L496.847,246.911L496.656,248.788L494.966,251.958L493.742,252.295L494.189,254.04L493.416,254.803L493.04,258.167L493.475,259.06L492.21,261.181L493.431,263.559L489.043,265.233L488.738,266.729L489.907,268.496L488.614,269.76L484.416,267.913L483.164,268.161L481.657,270.748L482.255,271.479L480.495,271.45L477.747,267.616L478.584,266.629L477.499,263.995L477.352,261.838L473.629,259.067L472.456,259.452L471.147,257.678L467.762,255.022L467.688,252.783L469.303,249.049L468.928,247.757L469.884,245.996L468.293,245.088L465.904,244.611L464.744,245.993L463.872,245.192L462.909,240.606L459.18,237.791L455.733,234.332L454.189,230.08L453.938,227.233L454.766,225.185L454.816,222.634L457.671,220.947L457.846,218.776L459.148,217.317L459.189,214.844L457.373,212.932L457.928,210.433L461.923,209.522L465.054,207.565L465.265,205.391L466.565,204.386L466.794,201.671L466.404,199.921L464.017,198.676L463.65,197.232Z" />
    <path id="st-indiana" class="state" data-name="Indiana" d="M509.77,201.476L521.924,200.114L522.033,201.032L524.065,217.717L526.203,237.282L525.458,237.992L526.787,241.722L524.92,242.019L523.075,243.554L520.246,243.252L520.672,246.001L518.973,247.355L518.459,249.198L516.643,250.094L516.014,253.734L514.865,254.787L512.296,253.734L511.715,252.164L509.523,254.171L509.855,255.69L507.47,256.469L506.622,255.155L504.02,256.801L503.264,258.346L500.334,256.522L498.948,257.113L497.907,256.197L497.103,257.276L494.378,257.667L493.475,259.06L493.04,258.167L493.416,254.803L494.189,254.04L493.742,252.295L494.966,251.958L496.656,248.788L496.847,246.911L498.023,244.791L497.626,242.345L496.012,239.466L496.955,236.824L494.052,203.706L495.151,204.535L498.314,204.244L501.207,202.343Z" />
    <path id="st-iowa" class="state" data-name="Iowa" d="M453.147,181.315L454.691,181.238L454.906,183.305L456.47,184.61L455.338,186.362L455.832,189.493L456.726,191.681L460.439,193.099L461.265,194.825L463.65,197.232L464.017,198.676L466.404,199.921L466.794,201.671L466.565,204.386L465.265,205.391L465.054,207.565L461.923,209.522L457.928,210.433L457.373,212.932L459.189,214.844L459.148,217.317L457.846,218.776L457.671,220.947L454.816,222.634L454.766,225.185L453.591,224.778L451.33,222.025L450.241,222.15L435.297,223.08L420.851,223.546L408.931,223.415L407.719,221.566L408.287,217.941L407.254,214.781L407.308,211.235L405.49,210.002L405.208,208.075L405.833,206.381L405.157,203.915L403.748,202.988L401.917,196.668L400.032,193.579L400.938,191.508L401.287,188.741L402.07,187.745L400.801,186.355L401.147,183.897L400.601,182.742L401.928,182.442Z" />
    <path id="st-kansas" class="state" data-name="Kansas" d="M343.919,229.73L413.827,231.647L414.883,232.951L418.325,233.997L415.977,238.113L417.336,239.489L419.073,242.788L421.372,243.452L421.757,273.874L361.345,273.015L339.777,271.942L342.354,229.631Z" />
    <path id="st-kentucky" class="state" data-name="Kentucky" d="M536.543,240.755L539.194,242.359L540.764,241.14L544.951,241.67L545.935,240.132L547.393,239.463L548.191,241.769L549.476,241.979L551.213,243.684L551.515,247.93L553.196,250.421L555.209,252.238L555.975,253.766L558.287,255.067L559.747,255.085L556.129,259.44L552.422,262.074L552.572,263.145L551.083,264.289L551.134,265.529L549.107,266.354L548.594,267.982L542.958,270.759L542.807,271.012L533.374,272.042L525.107,272.544L522.949,272.941L510.682,273.688L496.791,275.285L494.317,274.875L494.712,277.398L480.918,278.309L479.593,278.556L480.076,276.742L481.758,277.243L482.255,271.479L481.657,270.748L483.164,268.161L484.416,267.913L488.614,269.76L489.907,268.496L488.738,266.729L489.043,265.233L493.431,263.559L492.21,261.181L493.475,259.06L494.378,257.667L497.103,257.276L497.907,256.197L498.948,257.113L500.334,256.522L503.264,258.346L504.02,256.801L506.622,255.155L507.47,256.469L509.855,255.69L509.523,254.171L511.715,252.164L512.296,253.734L514.865,254.787L516.014,253.734L516.643,250.094L518.459,249.198L518.973,247.355L520.672,246.001L520.246,243.252L523.075,243.554L524.92,242.019L526.787,241.722L525.458,237.992L526.203,237.282L530.288,236.791L532.809,239.436L533.137,240.64Z" />
    <path id="st-louisiana" class="state" data-name="Louisiana" d="M434.294,329.697L462.703,328.848L463.869,330.406L463.072,331.063L463.089,333.912L464.908,335.589L465.383,339.722L464.135,343.019L461.461,345.154L460.903,348.334L459.722,348.083L459.771,353.23L458.347,353.45L459.321,356.17L458.519,357.206L481.03,355.947L480.154,360.615L482.322,363.545L482.935,365.808L484.481,367.162L481.049,369.309L480.874,370.701L483.842,371.425L484.946,369.125L487.61,371.165L487.535,372.935L486.132,373.8L483.37,373.298L483.788,374.573L482.992,376.62L485.436,378.218L489.197,378.491L490.677,380.453L491.766,380.679L490.004,383.183L487.834,382.878L485.864,380.563L481.316,379.565L481.162,377.199L479.018,378.103L479.276,380.078L478.39,381.971L476.808,382.375L475.484,380.387L472.681,380.474L471.802,382.668L469.967,383.382L467.894,382.193L466.285,382.124L464.577,378.767L461.776,377.373L460.724,377.653L459.527,374.799L456.361,375.323L456.218,373.568L453.174,375.38L453.625,376.664L451.282,377.982L447.537,377.509L443.156,375.743L440.079,374.995L433.531,375.856L432.68,376.412L431.588,375.059L434.318,370.019L433.331,367.361L434.152,365.885L433.712,363.979L434.857,362.494L436.01,358.86L435.736,355.874L432.345,350.275L432.21,347.206L429.558,344.19L429.262,329.812Z" />
    <path id="st-maine" class="state" data-name="Maine" d="M660.119,154.723L658.678,154.08L658.476,152.7L656.504,151.562L651.079,133.947L648.266,125.346L651.861,122.391L650.927,121.615L651.911,119.127L653.245,117.729L652.712,117.004L653.856,115.34L652.742,113.113L652.682,109.328L653.78,107.755L653.29,103.854L657.466,91.586L659.242,91.545L660.066,93.998L661.525,94.522L664.049,92.191L665.899,91.64L666.914,90.304L670.099,91.645L672.132,92.934L676.805,107.849L677.696,111.492L681.209,111.451L681.223,113.127L682.496,114.334L682.236,115.857L684.207,117.489L685.82,116.505L689.012,120.719L687.712,123.456L686.321,123.007L685.843,124.761L684.381,124.812L684.609,126.106L682.797,126.502L680.855,130.22L679.577,128.443L678.543,128.595L679.654,130.583L677.767,132.27L676.74,130.736L675.957,131.929L673.498,132.655L672.862,130.684L671.528,131.555L672.198,132.877L671.694,136.22L672.193,136.954L670.873,139.095L668.911,139.021L668.341,141.021L666.925,141.664L666.105,143.412L664.539,143.534L663.701,142.174L662.189,145.147L663.185,146.465L661.734,147.426L661.975,148.714L660.59,150.769Z" />
    <path id="st-maryland" class="state" data-name="Maryland" d="M622.978,237.679L622.744,237.729L622.452,237.791ZM581.388,220.368L619.932,212.825L624.666,229.97L631.533,228.613L630.737,234.883L629.156,235.47L626.422,236.937L624.275,238.033L623.847,235.756L622.779,235.037L623.79,233.793L621.677,231.877L621.364,232.97L619.107,233.211L617.828,230.877L618.524,230.73L617.897,227.469L618.319,226.038L616.473,221.851L617.078,219.04L618.758,218.209L618.479,215.506L617.23,216.088L617.461,217.46L615.078,219.777L614.606,221.532L615.269,225.574L614.622,227.68L615.745,230.76L617.596,232.661L617.769,234.36L618.991,235.84L618.763,237.072L615.857,235.389L612.144,235.048L610.667,233.141L608.933,234.751L607.843,233.236L608.986,230.802L609.47,228.42L610.566,226.701L608.962,225.608L608.264,226.616L606.62,225.607L604.293,225.361L603.888,223.316L602.514,222.406L600.859,222.494L598.903,218.863L597.126,219.205L595.104,218.255L594.33,219.501L592.596,219.749L592.477,221.341L589.193,220.928L587.497,223.356L586.033,223.15L584.379,225.876L582.528,227.536Z" />
    <path id="st-massachusetts" class="state" data-name="Massachusetts" d="M658.649,157.593L659.678,157.553L660.7,159.826L660.792,161.874L659.706,164.082L660.212,166.177L662.463,165.887L664.354,167.686L664.603,169.454L665.815,169.602L666.352,171.132L669.504,171.7L672.369,169.54L672.181,171.593L667.878,174.548L666.146,175.103L664.761,174.123L663.219,174.94L663.426,175.921L661.72,177.019L660.295,174.767L659.902,174.394L658.605,173.703L657.209,170.646L655.737,171.035L653.101,171.884L653.043,171.661L640.466,174.607L636.101,175.513L635.755,175.042L635.977,165.484L644.052,163.716L655.629,161.19L656.371,159.639Z" />
    <path id="st-michigan" class="state" data-name="Michigan" d="M535.851,198.754L522.033,201.032L521.924,200.114L509.77,201.476L501.207,202.343L503.11,200.299L504.2,197.017L505.294,194.971L505.97,192.194L506.132,188.309L505.483,184.201L501.685,176.397L502.309,173.247L501.285,169.647L503.189,165.676L503.354,162.498L502.857,160.854L504.404,160.001L504.38,157.692L506.842,156.814L508.501,154.093L508.89,159.135L509.939,159.251L510.95,156.594L510.526,152.328L511.208,151.173L513.799,150.183L512.605,147.319L514.067,144.61L516.223,144.201L518.855,145.5L521.272,145.434L522.688,147.26L524.515,147.182L527.785,148.609L528.84,148.393L530.887,151.131L529.764,152.903L531.323,154.781L532.122,157.07L532.224,162.316L530.394,163.875L530.257,166.601L527.985,167.826L527.087,171.191L527.734,172.347L530.286,173.179L531.913,171.184L533.613,167.316L536.846,165.48L538.677,166.309L539.988,168.14L541.845,173.772L542.422,176.64L544.023,179.984L543.694,185.16L542.141,186.157L541.827,184.337L540.795,185.025L540.103,189.395L538.263,191.28L538.085,194.568L535.868,197.586ZM508.592,145.618L508.936,147.272L507.693,147.717L507.966,145.303ZM489.179,156.471L487.549,155.155L488.286,153.093L485.958,152.988L486.703,151.005L486.598,148.558L484.433,147.056L483.17,145.398L478.922,144.363L477.684,144.92L473.396,143.174L463.263,141.027L462.063,138.732L460.222,138.002L463.869,136.33L465.443,134.55L469.591,133.584L472.166,131.341L473.415,131.173L474.352,129.653L477.165,127.378L478.535,125.515L480.674,124.197L482.883,125.004L479.488,129.559L478.716,131.072L478.974,133.648L480.647,131.527L483.966,131.555L486.648,132.698L489.295,136.286L490.619,136.854L492.98,136.021L493.638,136.801L496.101,137.022L500.923,133.316L503.562,132.732L507.137,132.496L509.424,131.166L511.244,130.881L512.057,134.7L514.008,135.009L515.825,134.178L516.721,134.992L517.841,133.703L520.571,132.98L521.231,137.818L522.754,139.703L524.722,139.99L524.756,138.599L526.6,138.359L527.791,139.665L527.087,140.837L521.689,140.607L519.229,141.529L516.28,140.194L515.669,141.806L516.193,143.051L514.939,142.892L512.919,141.206L509.673,140.425L508.081,140.526L506.748,142.516L504.257,143.245L501.463,143.155L500.429,144.029L500.319,145.576L497.42,147.172L497.399,145.331L496.035,145.081L495.689,147.034L493.462,147.323L492.53,148.255L491.338,151.667L488.93,156.109ZM474.215,117.473L471.975,119.39L470.753,119.707L470.753,118.262L476.42,114.566L475.467,116.921Z" />
    <path id="st-minnesota" class="state" data-name="Minnesota" d="M444.762,136.874L444,136.295L442.1,137.515L442.422,145.747L441.87,146.609L439.146,147.856L437.009,150.91L436.914,152.902L438.043,153.017L439.336,154.732L438.283,156.912L438.579,159.276L438.051,164.428L440.743,166.864L442.816,167.017L443.909,168.509L447.021,169.915L447.592,171.733L450.541,173.982L452.153,174.444L454.223,177.417L454.059,179.655L454.691,181.238L453.147,181.315L401.928,182.442L402.048,157.291L399.801,155.671L398.108,152.98L400.802,150.02L401.025,148.417L400.687,142.843L399.534,141.386L398.767,138.33L398.956,134.599L398.594,133.987L398.359,125.087L396.543,120.363L395.852,117.701L395.611,112.093L396.247,110.209L395.078,105.811L414.331,105.85L414.284,100.568L416.104,100.701L417.329,101.742L418.641,108.899L419.622,109.717L422.687,109.893L423.057,110.567L426.639,110.795L427.082,112.299L430.142,111.844L430.126,111.239L432.506,110.415L434.609,110.654L437.048,111.709L437.764,113.123L439.141,112.922L440.54,115.977L441.106,114.666L443.441,113.966L443.905,115.235L446.718,116.023L446.773,117.234L448.208,118.155L451.014,117.488L452.642,116.039L454.909,115.084L455.843,117.082L457.412,116.538L459.341,116.882L461.534,116.446L464.165,118.027L466.565,117.565L466.41,118.335L463.378,120.282L459.068,121.914L456.303,123.517L452.391,127.301L450.729,129.592L448.131,132.228L443.978,135.763Z" />
    <path id="st-mississippi" class="state" data-name="Mississippi" d="M491.772,298.852L494.806,298.607L496.103,299.97L495.749,315.468L495.22,342.294L497.833,363.559L496.569,364.275L493.655,364.194L492.403,363.367L489.559,364.192L485.663,366.082L484.481,367.162L482.935,365.808L482.322,363.545L480.154,360.615L481.03,355.947L458.519,357.206L459.321,356.17L458.347,353.45L459.771,353.23L459.722,348.083L460.903,348.334L461.461,345.154L464.135,343.019L465.383,339.722L464.908,335.589L463.089,333.912L463.072,331.063L463.869,330.406L462.703,328.848L463.495,326.88L462.71,323.992L463.664,322.786L461.545,321.044L463.155,316.643L465.112,314.302L464.339,312.8L466.594,310.362L466.481,309.442L468.5,308.556L468.155,305.796L469.303,305.112L469.972,302.678L471.709,301.493L470.952,300.302Z" />
    <path id="st-missouri" class="state" data-name="Missouri" d="M450.241,222.15L451.33,222.025L453.591,224.778L454.766,225.185L453.938,227.233L454.189,230.08L455.733,234.332L459.18,237.791L462.909,240.606L463.872,245.192L464.744,245.993L465.904,244.611L468.293,245.088L469.884,245.996L468.928,247.757L469.303,249.049L467.688,252.783L467.762,255.022L471.147,257.678L472.456,259.452L473.629,259.067L477.352,261.838L477.499,263.995L478.584,266.629L477.747,267.616L480.495,271.45L482.255,271.479L481.758,277.243L480.076,276.742L479.593,278.556L478.864,278.606L478.256,278.648L478.553,282.11L476.593,285.8L469.373,286.252L470.988,283.526L472.591,281.726L471.45,279.089L423.442,280.875L421.859,280.899L421.757,273.874L421.372,243.452L419.073,242.788L417.336,239.489L415.977,238.113L418.325,233.997L414.883,232.951L413.827,231.647L411.197,227.959L408.931,223.415L420.851,223.546L435.297,223.08Z" />
    <path id="st-montana" class="state" data-name="Montana" d="M331.921,102.727L330.641,118.422L328.336,144.97L327.271,158.158L327.109,158.145L308.891,156.34L277.908,152.573L258.681,149.707L257.574,156.979L256.033,155.256L254.873,152.583L252.151,155.087L250.077,155.285L249.722,154.447L247.314,154.661L246.092,153.751L243.631,154.568L240.59,153.952L239.342,155.053L238.352,154.096L237.877,149.413L235.88,148.891L234.971,147.554L235.513,144.929L234.529,143.733L233.466,140.652L233.015,137.842L233.491,136.765L232.016,135.083L230.782,136.403L228.051,137.821L226.28,135.992L227.048,134.585L226.648,133.026L228.671,131.867L228.091,129.574L228.985,126.405L231.33,121.58L228.576,121.116L228.65,120.199L226.459,118.284L226.348,116.708L223.605,112.343L223.6,111.332L221.833,110.345L220.391,108.334L221.123,104.607L218.941,100.187L221.905,86.347L263.317,94.26L282.109,97.068Z" />
    <path id="st-nebraska" class="state" data-name="Nebraska" d="M332.171,186.582L349.367,187.833L381.096,189.19L381.412,189.891L386.59,192.55L387.844,191.19L389.287,191.525L394.081,191.598L399.413,194.267L400.07,196.273L401.917,196.668L403.748,202.988L405.157,203.915L405.833,206.381L405.208,208.075L405.49,210.002L407.308,211.235L407.254,214.781L408.287,217.941L407.719,221.566L408.931,223.415L411.197,227.959L413.827,231.647L343.919,229.73L342.354,229.631L343.253,215.543L322.42,213.994L324.799,185.985Z" />
    <path id="st-nevada" class="state" data-name="Nevada" d="M191.595,179.663L221.685,186.015L208.345,255.117L206.203,266.262L204.608,268.391L203.51,268.257L202.513,266.332L198.386,266.067L197.434,274.297L197.817,277.126L197.55,279.747L196.505,281.506L185.83,265.373L179.883,256.431L171.755,244.236L161.67,229.071L151.251,213.401L155.762,196.151L161.793,172.547L174.802,175.889Z" />
    <path id="st-new-hampshire" class="state" data-name="New Hampshire" d="M648.266,125.346L651.079,133.947L656.504,151.562L658.476,152.7L658.678,154.08L660.119,154.723L659.678,157.553L658.649,157.593L656.371,159.639L655.629,161.19L644.052,163.716L642.923,162.89L642.523,160.849L643.198,159.886L642.6,157.975L641.898,152.049L642.923,148.934L642.993,145.667L643.555,144.334L642.64,141.004L645.531,138.907L646.507,136.194L645.031,134.205L645.755,131.638L645.299,130.333L645.734,126.496L648.016,126.284Z" />
    <path id="st-new-jersey" class="state" data-name="New Jersey" d="M631.488,189.754L635.342,190.908L635.053,195.176L633.585,196.471L633.178,198.783L636.233,199.177L636.83,200.701L637.319,208.355L635.354,214.599L633.604,216.665L632.502,220.558L631.016,218.52L627.727,218.071L623.343,215.876L622.67,213.89L622.547,213.6L622.952,212.722L623.555,210.851L626.088,209.104L626.023,208.011L628.685,205.04L628.92,203.721L625.36,201.597L624.86,199.891L623.466,199.728L623.002,198.171L624.034,195.412L622.875,194.17L624.799,190.735L625.016,189.105L626.127,187.825Z" />
    <path id="st-new-mexico" class="state" data-name="New Mexico" d="M280.642,266.416L286.7,267.207L314.504,270.026L329.221,271.139L328.704,278.146L328.279,278.114L325.625,313.034L324.316,327.222L323.27,341.256L281.63,337.371L281.155,338.709L282.325,340.463L262.6,338.093L261.784,344.413L251.914,343.094L262.886,264.118Z" />
    <path id="st-new-york" class="state" data-name="New York" d="M627.713,134.787L628.506,137.589L628.594,140.249L630.089,142.489L630.459,145.162L630.012,148.191L631.77,151.715L631.507,152.964L633.605,154.825L635.577,164.315L635.977,165.484L635.755,175.042L636.101,175.513L637.931,186.009L638.923,186.96L636.784,189.059L637.884,190.461L642.499,190.535L643.187,189.493L646.912,188.572L648.688,187.65L651.243,184.697L651.865,186.209L653.644,186.47L650.438,189.436L643.32,194.383L640.165,195.783L637.946,196.155L636.481,197.216L635.053,195.176L635.342,190.908L631.488,189.754L626.127,187.825L625.461,186.949L623.89,187.226L621.537,185.307L621.304,183.227L619.736,181.92L618.98,182.167L617.461,180.53L572.949,189.276L572.347,185.785L572.307,185.558L577.802,180.528L578.452,178.456L580.197,176.811L579.002,174.605L578.099,174.299L576.816,170.624L582.351,167.97L587.529,167.068L589.666,167.047L592.19,168.119L593.484,167.237L597.79,166.451L600.194,164.94L602.438,161.884L604.205,161.435L603.466,157.666L603.918,155.295L601.403,154.256L601.523,152.428L604.926,149.274L605.928,146.941L609.593,141.353L613.452,138.056L620.063,136.926Z" />
    <path id="st-north-carolina" class="state" data-name="North Carolina" d="M572.652,267.003L580.197,266.007L588.788,264.617L628.476,256.717L630.917,261.956L627.754,262.082L627.48,262.851L623.942,264.465L623.56,265.333L621.147,266.07L621.469,267.028L624.33,265.724L624.877,266.241L628.034,264.864L629.387,265.916L631.254,264.963L632.692,268.125L632.373,269.852L631.08,270.289L629.026,274.277L625.366,275.204L625.246,277.671L627.314,279.683L628.686,279.867L627.115,284.214L625.006,284.179L621.539,285.281L619.259,286.606L615.922,290.019L613.524,294.099L612.763,298.797L610.223,298.262L606.306,299.938L591.17,289.031L578.543,290.91L578.469,289.281L576.373,287.197L575.342,288.22L575.051,286.782L561.162,288.192L558.172,289.167L555.961,290.804L552.213,292.257L546.518,293.252L538.62,294.179L538.521,290.85L540.695,290.267L541.264,287.863L543.754,285.444L546.801,284.967L549.262,282.458L552.022,281.303L554.019,277.831L555.406,276.701L555.905,278.033L559.885,274.731L561.961,274.972L562.966,272.169L564.915,271.174L564.899,267.819Z" />
    <path id="st-north-dakota" class="state" data-name="North Dakota" d="M395.078,105.811L396.247,110.209L395.611,112.093L395.852,117.701L396.543,120.363L398.359,125.087L398.594,133.987L398.956,134.599L398.767,138.33L399.534,141.386L400.687,142.843L401.025,148.417L328.336,144.97L330.641,118.422L331.921,102.727Z" />
    <path id="st-ohio" class="state" data-name="Ohio" d="M565.32,190.873L568.383,209.508L566.974,210.52L567.961,211.923L568.253,214.064L567.37,217.647L567.218,222.91L563.837,228.058L562.601,228.876L561.302,228.14L560.391,230.311L559.162,230.42L558.23,233.293L558.762,234.853L557.85,236.317L555.959,234.413L554.47,238.066L555.309,240.128L554.133,241.08L553.988,242.974L551.213,243.684L549.476,241.979L548.191,241.769L547.393,239.463L545.935,240.132L544.951,241.67L540.764,241.14L539.194,242.359L536.543,240.755L533.137,240.64L532.809,239.436L530.288,236.791L526.203,237.282L524.065,217.717L522.033,201.032L535.851,198.754L540.098,200.125L541.606,201.084L542.47,199.875L545.032,201.772L546.539,202.258L551.056,199.73L553.923,199.691L556.558,196.638L560.583,193.434L565.32,190.873Z" />
    <path id="st-oklahoma" class="state" data-name="Oklahoma" d="M361.345,273.015L421.757,273.874L421.859,280.899L424.187,296.455L423.963,321.208L419.52,319.729L418.366,318.125L415.393,316.766L414.646,318.005L411.684,317.946L411.05,317.178L408.345,318.573L407.209,317.804L404.751,318.496L402.473,320.647L401.594,319.411L399.203,318.396L396.681,318.376L395.877,316.751L392.942,319.877L392.019,318.094L390.687,318.615L389.696,317.444L387.007,316.321L384.957,318.132L384.114,316.188L382.483,315.922L381.575,314.36L379.392,313.692L377.913,314.964L377.002,313.784L374.737,313.874L372.265,312.566L369.939,312.645L369.217,309.921L365.594,309.636L364.201,310.046L361.747,307.247L360.867,307.364L362.016,280.076L341.888,279.036L328.704,278.146L329.221,271.139L339.777,271.942Z" />
    <path id="st-oregon" class="state" data-name="Oregon" d="M146.449,107.594L147.357,107.702L148.938,109.675L149.338,111.54L148.631,115.71L153.046,118.565L157.766,117.588L160.401,118.08L163.189,119.635L163.259,120.604L168.937,120.07L170.001,121.063L172.888,121.424L175.559,120.695L179.993,120.565L183.839,121.213L185.35,120.643L204.909,125.322L205.693,127.923L207.72,129.388L208.094,131.426L205.217,135.022L204.11,137.285L202.639,138.683L202.514,139.989L201.059,141.783L199.954,142.007L196.894,146.423L197.161,148.449L198.975,149.094L199.523,150.396L197.232,154.602L191.595,179.663L174.802,175.889L161.793,172.547L151.48,169.826L138.221,165.91L129.746,163.534L120.05,160.703L119.123,158.727L119.708,154.155L120.798,151.189L120.191,148.425L121.831,146.517L123.63,143.129L126.229,139.748L127.894,136.562L132.406,125.507L132.718,123.92L135.162,119.22L137.607,112.447L138.249,108.49L139.393,106.364L143.695,105.505L144.865,107.524Z" />
    <path id="st-pennsylvania" class="state" data-name="Pennsylvania" d="M572.347,185.785L572.949,189.276L617.461,180.53L618.98,182.167L619.736,181.92L621.304,183.227L621.537,185.307L623.89,187.226L625.461,186.949L626.127,187.825L625.016,189.105L624.799,190.735L622.875,194.17L624.034,195.412L623.002,198.171L623.466,199.728L624.86,199.891L625.36,201.597L628.92,203.721L628.685,205.04L626.023,208.011L626.088,209.104L623.555,210.851L621.369,210.934L619.932,212.825L581.388,220.368L570.472,222.224L568.383,209.508L565.32,190.873L565.32,190.873L567.087,189.801L572.307,185.558Z" />
    <path id="st-rhode-island" class="state" data-name="Rhode Island" d="M660.295,174.767L661.72,177.019L659.822,177.844ZM655.737,171.035L657.209,170.646L658.605,173.703L659.902,174.394L658.638,174.491L658.129,176.778L658.547,179.697L654.921,181.363L655.197,179.937L653.101,171.884Z" />
    <path id="st-south-carolina" class="state" data-name="South Carolina" d="M555.961,290.804L558.172,289.167L561.162,288.192L575.051,286.782L575.342,288.22L576.373,287.197L578.469,289.281L578.543,290.91L591.17,289.031L606.306,299.938L604.448,300.986L602.378,303.714L600.59,307.714L600.668,310.672L599.129,313.29L596.556,313.743L596.281,315.509L593.889,317.796L592.711,320.026L590.452,321.265L588.211,323.821L588.12,324.849L585.895,326.382L583.765,329.763L580.897,328.974L580.462,326.631L578.039,323.197L576.303,322.455L575.718,319.51L574.61,317.345L571.201,315.684L568.802,313.397L568.689,311.78L565.273,309.871L563.396,307.498L560.524,306.12L558.308,303.477L557.71,301.926L555.547,299.115L554.402,299.506L550.222,297.04L550.213,295.563L552.213,292.257Z" />
    <path id="st-south-dakota" class="state" data-name="South Dakota" d="M328.336,144.97L401.025,148.417L400.802,150.02L398.108,152.98L399.801,155.671L402.048,157.291L401.928,182.442L400.601,182.742L401.147,183.897L400.801,186.355L402.07,187.745L401.287,188.741L400.938,191.508L400.032,193.579L401.917,196.668L400.07,196.273L399.413,194.267L394.081,191.598L389.287,191.525L387.844,191.19L386.59,192.55L381.412,189.891L381.096,189.19L349.367,187.833L332.171,186.582L324.799,185.985L327.109,158.145L327.271,158.158Z" />
    <path id="st-tennessee" class="state" data-name="Tennessee" d="M494.712,277.398L494.317,274.875L496.791,275.285L510.682,273.688L522.949,272.941L525.107,272.544L533.374,272.042L542.807,271.012L542.958,270.759L564.899,267.819L564.915,271.174L562.966,272.169L561.961,274.972L559.885,274.731L555.905,278.033L555.406,276.701L554.019,277.831L552.022,281.303L549.262,282.458L546.801,284.967L543.754,285.444L541.264,287.863L540.695,290.267L538.521,290.85L538.62,294.179L524.129,295.947L504.329,297.704L494.806,298.607L491.772,298.852L470.952,300.302L472.045,299.85L473.007,297.318L472.612,293.941L474.561,291.5L474.791,289.32L476.398,288.442L476.593,285.8L478.553,282.11L478.256,278.648L478.864,278.606L479.593,278.556L480.918,278.309Z" />
    <path id="st-texas" class="state active" data-name="Texas" d="M341.888,279.036L362.016,280.076L360.867,307.364L361.747,307.247L364.201,310.046L365.594,309.636L369.217,309.921L369.939,312.645L372.265,312.566L374.737,313.874L377.002,313.784L377.913,314.964L379.392,313.692L381.575,314.36L382.483,315.922L384.114,316.188L384.957,318.132L387.007,316.321L389.696,317.444L390.687,318.615L392.019,318.094L392.942,319.877L395.877,316.751L396.681,318.376L399.203,318.396L401.594,319.411L402.473,320.647L404.751,318.496L407.209,317.804L408.345,318.573L411.05,317.178L411.684,317.946L414.646,318.005L415.393,316.766L418.366,318.125L419.52,319.729L423.963,321.208L425.186,322.497L427.451,321.763L429.108,322.346L429.262,329.812L429.558,344.19L432.21,347.206L432.345,350.275L435.736,355.874L436.01,358.86L434.857,362.494L433.712,363.979L434.152,365.885L433.331,367.361L434.318,370.019L431.588,375.059L432.68,376.412L430.69,376.532L424.412,378.559L422.136,377.521L421.707,375.232L420.134,376.858L419.001,376.489L418.424,378.484L419.697,379.311L419.927,381.908L417.686,384.683L414.03,388.15L406.653,391.839L405.914,391.228L403.692,392.141L403.627,391.301L400.598,391.901L399.196,390.137L398.32,390.513L401.531,394.118L399.164,395.249L396.943,394.547L396.585,397.061L393.786,399.625L390.878,404.39L388.968,409.386L387.608,408.985L387.237,410.805L388.68,410.371L387.94,414.009L386.977,414.146L386.875,416.196L388.025,417.354L388.305,421.534L389.665,422.995L389.974,425.654L391.051,428.018L387.144,429.402L385.578,427.557L382.611,426.819L378.657,426.886L375.321,424.529L372.768,424.233L370.886,422.357L368.282,421.67L366.547,419.867L365.519,415.653L363.345,413.067L363.695,410.95L362.754,408.633L363.168,406.669L361.684,404.404L360.401,404.127L358.374,402.064L357.8,399.525L356.07,397.163L353.52,395.143L352.432,390.893L351.276,389.693L349.828,386.26L349.428,383.487L347.992,381.427L345.484,379.537L344.95,378.283L342.616,377.084L340.93,373.925L335.673,372.923L332.487,372.875L329.845,371.628L329.152,373.039L326.208,373.297L323.815,376.042L322.148,380.597L321.41,380.619L319.538,383.238L317.529,383.163L314.694,380.796L307.46,376.747L306.158,374.792L303.399,372.782L301.71,368.633L301.907,365.038L300.14,361.951L299.917,359.39L298.762,357.664L294.36,354.849L292.21,351.396L290.315,350.045L288.463,347.074L285.644,345.307L283.979,341.419L282.325,340.463L281.155,338.709L281.63,337.371L323.27,341.256L324.316,327.222L325.625,313.034L328.279,278.114L328.704,278.146Z" />
    <path id="st-utah" class="state" data-name="Utah" d="M240.728,189.479L252.097,191.285L249.874,205.212L270.538,208.288L266.868,234.422L265.171,246.27L265.136,247.824L262.886,264.118L246.977,261.719L208.345,255.117L221.685,186.015Z" />
    <path id="st-vermont" class="state" data-name="Vermont" d="M645.299,130.333L645.755,131.638L645.031,134.205L646.507,136.194L645.531,138.907L642.64,141.004L643.555,144.334L642.993,145.667L642.923,148.934L641.898,152.049L642.6,157.975L643.198,159.886L642.523,160.849L642.923,162.89L644.052,163.716L635.977,165.484L635.577,164.315L633.605,154.825L631.507,152.964L631.77,151.715L630.012,148.191L630.459,145.162L630.089,142.489L628.594,140.249L628.506,137.589L627.713,134.787L637.654,132.472Z" />
    <path id="st-virginia" class="state" data-name="Virginia" d="M593.869,221.788L600.222,225.37L600.859,222.494L602.514,222.406L603.888,223.316L604.293,225.361L606.62,225.607L608.264,226.616L609.47,228.42L608.986,230.802L607.831,231.664L607.41,233.795L608.163,235.141L610.924,234.114L611.893,236.202L615.812,236.345L617.223,237.866L620.599,239.132L620.062,243.269L621.932,246.032L620.761,247.778L620.947,249.553L622.529,250.326L621.398,252.299L618.693,250.574L618.317,251.44L620.6,252.623L626.011,251.876L628.476,256.717L588.788,264.617L580.197,266.007L572.652,267.003L564.899,267.819L542.958,270.759L548.594,267.982L549.107,266.354L551.134,265.529L551.083,264.289L552.572,263.145L552.422,262.074L556.129,259.44L559.747,255.085L559.739,256.257L561.58,258.403L563.601,259.269L564.961,258.984L566.763,256.83L568.477,258.048L571.155,256.843L575.653,253.376L576.206,254.146L577.902,252.613L577.542,250.089L578.353,247.683L580.008,245.289L580.403,242.636L582.068,239.686L582.331,236.349L584.473,237.934L586.333,238.233L587.239,236.896L588.621,231.548L590.177,232.521L594.062,225.993ZM629.156,235.47L630.737,234.883L629.854,237.53L628.576,238.681L628.39,242.041L627.269,247.657L625.666,249.107L624.673,247.346L624.71,242.916L626.422,236.937Z" />
    <path id="st-washington" class="state" data-name="Washington" d="M212.973,84.386L209.116,101.059L205.09,119.184L204.684,120.265L205.39,122.926L204.909,125.322L185.35,120.643L183.839,121.213L179.993,120.565L175.559,120.695L172.888,121.424L170.001,121.063L168.937,120.07L163.259,120.604L163.189,119.635L160.401,118.08L157.766,117.588L153.046,118.565L148.631,115.71L149.338,111.54L148.938,109.675L147.357,107.702L146.449,107.594L144.865,107.524L143.695,105.505L142.173,104.492L140.561,104.883L139.141,103.177L140.05,101.46L141.55,100.879L140.526,97.542L141.474,89.953L141.016,88.778L141.587,83.39L140.413,80.882L140.891,76.742L142.681,74.443L144.116,76.234L147.294,79.028L149.829,79.713L152.15,81.117L154.713,81.163L155.508,82.66L157.657,83.207L158.303,86.551L159.459,86.646L158.53,90.644L158.157,94.411L159.164,94.302L159.137,90.976L160.241,88.053L162.602,85.412L161.765,83.834L162.288,81.62L162.086,78.963L163.028,77.343L163.021,75.139L161.683,74.44L160.802,72.534L161.564,71.181ZM159.262,80.436L160.613,80.195L159.641,82.832L158.502,81.4ZM157.562,76.001L159.051,74.544L159.765,77.035L158.845,78.739L156.926,77.629Z" />
    <path id="st-west-virginia" class="state" data-name="West Virginia" d="M568.383,209.508L570.472,222.224L581.388,220.368L582.528,227.536L584.379,225.876L586.033,223.15L587.497,223.356L589.193,220.928L592.477,221.341L592.596,219.749L594.33,219.501L595.104,218.255L597.126,219.205L598.903,218.863L600.859,222.494L600.222,225.37L593.869,221.788L594.062,225.993L590.177,232.521L588.621,231.548L587.239,236.896L586.333,238.233L584.473,237.934L582.331,236.349L582.068,239.686L580.403,242.636L580.008,245.289L578.353,247.683L577.542,250.089L577.902,252.613L576.206,254.146L575.653,253.376L571.155,256.843L568.477,258.048L566.763,256.83L564.961,258.984L563.601,259.269L561.58,258.403L559.739,256.257L559.747,255.085L558.287,255.067L555.975,253.766L555.209,252.238L553.196,250.421L551.515,247.93L551.213,243.684L553.988,242.974L554.133,241.08L555.309,240.128L554.47,238.066L555.959,234.413L557.85,236.317L558.762,234.853L558.23,233.293L559.162,230.42L560.391,230.311L561.302,228.14L562.601,228.876L563.837,228.058L567.218,222.91L567.37,217.647L568.253,214.064L567.961,211.923L566.974,210.52Z" />
    <path id="st-wisconsin" class="state" data-name="Wisconsin" d="M460.222,138.002L462.063,138.732L463.263,141.027L473.396,143.174L477.684,144.92L478.922,144.363L483.17,145.398L484.433,147.056L486.598,148.558L486.703,151.005L485.958,152.988L488.286,153.093L487.549,155.155L489.179,156.471L488.951,158.182L487.094,158.652L485.749,161.996L485.341,164.261L486.511,164.547L487.902,162.965L489.281,160.076L491.233,158.824L492.524,155.169L494.49,154.216L494.502,156.06L493.262,157.869L491.04,163.919L490.568,167.195L490.827,169.482L489.86,170.338L489.206,173.555L489.769,176.203L489.043,178.04L488.207,182.508L488.778,185.931L490.263,188.891L490.225,192.988L480.173,193.804L461.265,194.825L460.439,193.099L456.726,191.681L455.832,189.493L455.338,186.362L456.47,184.61L454.906,183.305L454.691,181.238L454.059,179.655L454.223,177.417L452.153,174.444L450.541,173.982L447.592,171.733L447.021,169.915L443.909,168.509L442.816,167.017L440.743,166.864L438.051,164.428L438.579,159.276L438.283,156.912L439.336,154.732L438.043,153.017L436.914,152.902L437.009,150.91L439.146,147.856L441.87,146.609L442.422,145.747L442.1,137.515L444,136.295L444.762,136.874L446.924,136.933L453.48,134.254L455.874,132.831L456.766,133.774L455.555,135.67L458.84,137.854Z" />
    <path id="st-wyoming" class="state" data-name="Wyoming" d="M277.908,152.573L308.891,156.34L327.109,158.145L324.799,185.985L322.42,213.994L304.975,212.434L282.237,209.756L270.538,208.288L249.874,205.212L252.097,191.285L257.574,156.979L258.681,149.707Z" />
  </g>
</svg>